<svg width="50" height="51" viewBox="0 0 50 51" fill="none" xmlns="http://www.w3.org/2000/svg">
<g opacity="0.5">
<path d="M25 1.35555C38.038 1.35555 48.6452 11.9687 48.6452 25.0139C48.6452 38.0592 38.038 48.6723 25 48.6723C11.962 48.6723 1.35479 38.0592 1.35479 25.0139C1.35479 11.9687 11.962 1.35555 25 1.35555ZM25 0C11.1928 0 0 11.1993 0 25.0139C0 38.8286 11.193 50.0279 25 50.0279C38.8072 50.0279 50 38.8286 50 25.0139C50 11.1993 38.8072 0 25 0Z" fill="#ADC9B1"/>
</g>
<path d="M25 47.9226C37.6451 47.9226 47.896 37.666 47.896 25.0138C47.896 12.3616 37.6451 2.10504 25 2.10504C12.3549 2.10504 2.104 12.3616 2.104 25.0138C2.104 37.666 12.3549 47.9226 25 47.9226Z" fill="#9EC6A3"/>
<path opacity="0.07" d="M4.17385 27.0845C4.17385 14.4324 14.4248 4.17578 27.0699 4.17578C32.8657 4.17578 38.1575 6.33164 42.191 9.88426C37.9952 5.11517 31.8493 2.10504 25 2.10504C12.3549 2.10504 2.104 12.3617 2.104 25.0138C2.104 31.8669 5.11247 38.0159 9.8789 42.2143C6.32853 38.1786 4.17385 32.8836 4.17385 27.0845Z" fill="black"/>
<mask id="mask0_435_155" style="mask-type:luminance" maskUnits="userSpaceOnUse" x="2" y="2" width="46" height="46">
<path d="M25 47.9226C37.6451 47.9226 47.896 37.666 47.896 25.0138C47.896 12.3616 37.6451 2.10504 25 2.10504C12.3549 2.10504 2.104 12.3616 2.104 25.0138C2.104 37.666 12.3549 47.9226 25 47.9226Z" fill="white"/>
</mask>
<g mask="url(#mask0_435_155)">
<path d="M18.4009 19.647C18.7434 21.3528 18.1804 22.9982 17.1434 23.3219C16.1064 23.6456 14.9882 22.5251 14.6457 20.8193C14.3032 19.1134 14.8663 17.4681 15.9032 17.1444C16.9402 16.8207 18.0584 17.9412 18.4009 19.647Z" fill="white"/>
<path d="M31.4411 19.647C31.0986 21.3528 31.6617 22.9982 32.6986 23.3219C33.7356 23.6456 34.8538 22.5251 35.1963 20.8193C35.5388 19.1134 34.9758 17.4681 33.9388 17.1444C32.9016 16.8207 31.7836 17.9412 31.4411 19.647Z" fill="#F4F1EF"/>
<path opacity="0.5" d="M38.5227 38.5293C38.0082 38.0652 37.3798 37.7136 36.6683 37.5235L32.3517 36.3699C32.1823 36.3247 32.0178 36.2688 31.8566 36.2078C31.8171 36.1929 31.7786 36.1766 31.7396 36.1609C31.6046 36.1061 31.4724 36.0465 31.344 35.9812C31.3274 35.9728 31.3104 35.9649 31.2938 35.9562L31.4578 35.7071L28.9595 33.4997C28.6948 32.9209 28.5303 32.2892 28.4927 31.6266L28.4138 30.2372C30.2431 28.7092 31.9187 26.1673 32.9548 23.3694C33.9135 23.4543 34.8816 22.385 35.1959 20.8194C35.5162 19.2242 35.0444 17.6824 34.1338 17.2242H34.1343C34.1343 17.2242 34.9501 13.1527 32.7673 10.1547C30.7804 7.42601 27.6543 5.48975 24.8643 5.94873V48.7613H38.8078L39.9374 42.7106C39.9916 42.4208 40.0165 42.1321 40.0146 41.8472C40.0057 40.5656 39.4489 39.3649 38.5227 38.5293Z" fill="#51504F"/>
<path d="M32.3518 36.3695C30.1766 35.7883 28.6205 33.8753 28.4928 31.6262L28.0709 24.1826H21.1545L20.7128 31.9385C20.5835 34.2107 18.9965 36.1364 16.792 36.6965L13.3947 37.5597C11.0894 38.1453 9.63519 40.4218 10.072 42.7612L11.1921 48.7609H38.808L39.9376 42.7102C40.3703 40.392 38.9456 38.1312 36.6685 37.5228L32.3518 36.3695Z" fill="#F4F1EF"/>
<path d="M34.032 17.8116C34.032 24.1502 29.146 31.7285 25.0001 31.7285C20.8539 31.7285 15.9683 24.1502 15.9683 17.8116C15.9683 11.4731 20.012 7.69031 25.0001 7.69031C29.9882 7.69031 34.032 11.4731 34.032 17.8116Z" fill="white"/>
<path d="M22.1474 7.35376C20.4859 7.56007 18.0906 7.69074 16.5234 10.9912C14.8781 14.456 15.614 17.2791 15.614 17.2791C17.4552 17.1435 17.7197 20.2336 17.7197 20.2336L18.2274 19.3392C18.432 17.7606 18.5572 14.7643 19.7163 14.0865C21.0806 13.9509 27.0268 16.2554 28.6753 12.5276C32.7129 12.5501 31.7426 18.5389 31.7063 19.2601L32.2482 20.2336C32.2482 20.2336 32.7768 17.2178 34.1346 17.2246C34.1346 17.2246 34.9505 13.1531 32.7676 10.1551C30.0922 6.48133 25.352 4.23979 22.1474 7.35376Z" fill="#333332"/>
<path d="M36.6685 37.5236L32.3518 36.37C31.979 36.2705 31.6251 36.1309 31.2929 35.9579L31.4579 35.7074L28.9597 33.5001L24.8669 37.5949L20.4806 33.2062L18.1132 35.6847L18.3511 36.0135C17.8813 36.3196 17.3572 36.5538 16.792 36.6973L13.3947 37.5605C11.0894 38.1463 9.63519 40.4228 10.072 42.762L11.1921 48.7616H38.8082L39.9379 42.711C40.3703 40.3927 38.9459 38.132 36.6685 37.5236Z" fill="white"/>
<path opacity="0.1" d="M18.7905 37.0151L22.2916 42.1087L24.8668 37.5944L22.2916 43.1286L18.7905 37.0151Z" fill="black"/>
<path opacity="0.1" d="M30.8432 37.0151L27.4397 41.8747L24.8643 37.5944L27.4397 43.1286L30.8432 37.0151Z" fill="black"/>
<path d="M18.3511 36.0136C17.8813 36.3197 17.3572 36.5539 16.792 36.6973L13.3947 37.5606C11.0894 38.1464 9.63519 40.4227 10.072 42.7621L11.1921 48.7617H23.9418L18.3511 36.0136Z" fill="#51504F"/>
<path d="M36.6684 37.5237L32.3517 36.3702C31.9789 36.2704 31.625 36.131 31.2928 35.9581L25.8525 48.7618H38.8081L39.9378 42.7111C40.3702 40.3929 38.9458 38.1321 36.6684 37.5237Z" fill="#51504F"/>
<path opacity="0.24" d="M14.8564 38.873L18.2304 46.1222L20.0778 45.7608L18.9487 47.9227L19.2649 48.7615H19.9873L19.7164 47.9227L20.8679 45.1734L18.5014 45.58L14.8564 38.873Z" fill="black"/>
<path opacity="0.24" d="M34.6868 38.873L31.3128 46.1222L29.4657 45.7608L30.5945 47.9227L30.2786 48.7615H29.5559L29.8269 47.9227L28.6753 45.1734L31.0418 45.58L34.6868 38.873Z" fill="black"/>
<path d="M24.8643 37.5946L23.1294 40.6383L24.8643 42.787L26.7237 40.683L24.8643 37.5946Z" fill="#3C3F44"/>
<path d="M24.8643 40.3055L23.1294 44.4353L23.9415 48.7611H25.8523L26.7237 44.48L24.8643 40.3055Z" fill="#3C3F44"/>
</g>
</svg>
