<svg width="40" height="40" viewBox="0 0 40 40" fill="none" xmlns="http://www.w3.org/2000/svg">
<path d="M2.69499 18.6262L5.80624 7.72C6.27065 6.11398 7.73819 5.00633 9.40999 5H26.2512C26.9425 5 27.5 5.56 27.5 6.25V23.75C27.5008 24.0188 27.4144 24.2807 27.2537 24.4962L20.5137 33.5462C19.519 34.8163 17.8283 35.3159 16.303 34.7906C14.7777 34.2654 13.7531 32.8307 13.7512 31.2175V25H7.49874C5.93075 25.0066 4.45239 24.2698 3.51374 23.0137C2.56181 21.7633 2.25813 20.1359 2.69499 18.6262Z" fill="#666666"/>
<path d="M30.35 25H35.35C35.6814 25 35.9992 24.8683 36.2334 24.6338C36.4677 24.3994 36.5991 24.0814 36.5988 23.75V6.25C36.5988 5.56 36.0413 5 35.35 5H30.35C29.6601 5 29.1 5.56011 29.1 6.25V23.75C29.1 24.4399 29.6601 25 30.35 25ZM32.85 8.125C33.5201 8.12522 34.1392 8.48292 34.474 9.06335C34.8089 9.64379 34.8086 10.3588 34.4734 10.939C34.1382 11.5192 33.5189 11.8765 32.8488 11.8762C31.8136 11.8762 30.9731 11.0358 30.9731 10.0006C30.9731 8.96544 31.8136 8.125 32.8488 8.125" fill="#666666"/>
</svg>
