<svg width="26" height="26" viewBox="0 0 26 26" fill="none" xmlns="http://www.w3.org/2000/svg">
<path d="M1.75176 12.1071L3.77407 5.018C4.07594 3.97409 5.02984 3.25412 6.11651 3.25H17.0633C17.5126 3.25 17.875 3.614 17.875 4.0625V15.4375C17.8755 15.6122 17.8194 15.7824 17.715 15.9226L13.334 21.8051C12.6873 22.6306 11.5884 22.9553 10.597 22.6139C9.60551 22.2725 8.93956 21.34 8.93832 20.2914V16.25H4.8742C3.85501 16.2543 2.89407 15.7753 2.28395 14.9589C1.66519 14.1461 1.4678 13.0883 1.75176 12.1071Z" fill="#666666"/>
<path d="M19.7275 16.25H22.9775C23.1929 16.25 23.3995 16.1644 23.5517 16.012C23.704 15.8596 23.7894 15.6529 23.7892 15.4375V4.0625C23.7892 3.614 23.4268 3.25 22.9775 3.25H19.7275C19.2791 3.25 18.915 3.61407 18.915 4.0625V15.4375C18.915 15.8859 19.2791 16.25 19.7275 16.25ZM21.3525 5.28125C21.7881 5.28139 22.1905 5.5139 22.4081 5.89118C22.6258 6.26846 22.6256 6.7332 22.4077 7.11034C22.1898 7.48747 21.7873 7.71971 21.3517 7.71956C20.6788 7.71956 20.1325 7.17328 20.1325 6.50041C20.1325 5.82754 20.6788 5.28125 21.3517 5.28125" fill="#666666"/>
</svg>
