<svg width="26" height="26" viewBox="0 0 26 26" fill="none" xmlns="http://www.w3.org/2000/svg">
<path d="M23.664 13.893L21.6417 20.982C21.3399 22.0259 20.386 22.7459 19.2993 22.75H8.35248C7.90375 22.75 7.53998 22.3863 7.53998 21.9375V10.5625C7.53998 10.3878 7.59604 10.2172 7.70085 10.0775L12.0819 4.19496C12.7285 3.36944 13.8274 3.04469 14.8188 3.38612C15.8103 3.72754 16.4762 4.66004 16.4775 5.70865V9.75002H20.5416C21.5694 9.75002 22.5135 10.2205 23.1319 11.0411C23.7506 11.8539 23.948 12.9117 23.664 13.893Z" fill="#666666"/>
<path d="M5.6875 9.75H2.4375C1.98907 9.75 1.625 10.1141 1.625 10.5625V21.9375C1.625 22.3859 1.98907 22.75 2.4375 22.75H5.6875C6.13593 22.75 6.5 22.3859 6.5 21.9375V10.5625C6.5 10.1141 6.13593 9.75 5.6875 9.75ZM4.0625 20.7188C3.38963 20.7185 2.84353 20.1721 2.84375 19.4992C2.84397 18.8263 3.39044 18.2802 4.06331 18.2804C4.73663 18.2807 5.28229 18.8267 5.28206 19.5C5.28184 20.1733 4.73582 20.719 4.0625 20.7188Z" fill="#666666"/>
</svg>
