<svg width="40" height="40" viewBox="0 0 40 40" fill="none" xmlns="http://www.w3.org/2000/svg">
<path d="M36.4062 21.3737L33.295 32.28C32.8306 33.886 31.363 34.9936 29.6912 35H12.85C12.1596 35 11.6 34.4403 11.6 33.75V16.25C11.6 15.9812 11.6862 15.7187 11.8475 15.5037L18.5875 6.45371C19.5823 5.18369 21.2729 4.68407 22.7982 5.20934C24.3235 5.7346 25.3481 7.16922 25.35 8.78246V15H31.6025C33.1837 15 34.6362 15.7237 35.5875 16.9862C36.5394 18.2367 36.8431 19.8641 36.4062 21.3737Z" fill="#666666"/>
<path d="M8.75 15H3.75C3.06011 15 2.5 15.5601 2.5 16.25V33.75C2.5 34.4399 3.06011 35 3.75 35H8.75C9.43989 35 10 34.4399 10 33.75V16.25C10 15.5601 9.43989 15 8.75 15ZM6.25 31.875C5.21481 31.8747 4.37466 31.0339 4.375 29.9987C4.37534 28.9636 5.21606 28.1234 6.25125 28.1237C7.28713 28.1241 8.1266 28.9641 8.12625 30C8.1259 31.0359 7.28588 31.8753 6.25 31.875Z" fill="#666666"/>
</svg>
