<svg width="50" height="51" viewBox="0 0 50 51" fill="none" xmlns="http://www.w3.org/2000/svg">
<g opacity="0.5">
<path d="M25 1.58358C38.038 1.58358 48.6452 12.1967 48.6452 25.242C48.6452 38.2872 38.038 48.9003 25 48.9003C11.962 48.9003 1.35479 38.2872 1.35479 25.242C1.35479 12.1967 11.962 1.58358 25 1.58358ZM25 0.228027C11.1928 0.228027 0 11.4273 0 25.242C0 39.0566 11.193 50.2559 25 50.2559C38.8072 50.2559 50 39.0569 50 25.242C50 11.427 38.8072 0.228027 25 0.228027Z" fill="#F2D6DE"/>
</g>
<path d="M25 48.1505C37.6451 48.1505 47.896 37.8939 47.896 25.2418C47.896 12.5896 37.6451 2.33301 25 2.33301C12.3549 2.33301 2.104 12.5896 2.104 25.2418C2.104 37.8939 12.3549 48.1505 25 48.1505Z" fill="#C6ACB4"/>
<path opacity="0.07" d="M4.17383 27.3128C4.17383 14.6606 14.4247 4.40401 27.0698 4.40401C32.8656 4.40401 38.1575 6.55987 42.191 10.1122C37.9952 5.34313 31.8493 2.33301 25.0002 2.33301C12.3552 2.33301 2.10425 12.5896 2.10425 25.2418C2.10425 32.0949 5.11271 38.2439 9.87914 42.442C6.3285 38.4068 4.17383 33.1121 4.17383 27.3128Z" fill="black"/>
<mask id="mask0_297_966" style="mask-type:luminance" maskUnits="userSpaceOnUse" x="2" y="2" width="46" height="47">
<path d="M25 48.1505C37.6451 48.1505 47.896 37.8939 47.896 25.2418C47.896 12.5896 37.6451 2.33301 25 2.33301C12.3549 2.33301 2.104 12.5896 2.104 25.2418C2.104 37.8939 12.3549 48.1505 25 48.1505Z" fill="white"/>
</mask>
<g mask="url(#mask0_297_966)">
<path d="M31.3408 8.74707C31.3408 8.74707 37.6433 13.6742 35.4881 23.6058C34.3482 28.8585 28.4069 30.4749 28.4069 30.4749C28.4069 30.4749 31.7714 26.3321 30.7769 18.4073L31.3408 8.74707Z" fill="#FFB56A"/>
<path opacity="0.32" d="M35.2571 20.4106C33.9186 20.8227 32.3243 21.1196 30.9552 20.9035C31.0633 27.1979 28.407 30.4745 28.407 30.4745C28.407 30.4745 31.8656 28.8844 34.2839 24.0847C35.2572 22.1528 35.2571 20.4106 35.2571 20.4106Z" fill="black"/>
<path d="M18.4011 19.8751C18.7436 21.5809 18.1805 23.2263 17.1436 23.55C16.1066 23.8737 14.9884 22.7532 14.6459 21.0474C14.3034 19.3416 14.8664 17.6962 15.9034 17.3725C16.9404 17.0491 18.0586 18.1693 18.4011 19.8751Z" fill="#F2EAE2"/>
<path d="M31.4413 19.8751C31.0988 21.5809 31.6618 23.2263 32.6988 23.55C33.7358 23.8737 34.854 22.7532 35.1965 21.0474C35.539 19.3416 34.9759 17.6962 33.939 17.3725C32.9017 17.0491 31.7835 18.1693 31.4413 19.8751Z" fill="#F4F1EF"/>
<path opacity="0.5" d="M39.6938 40.4388C39.3093 39.4758 38.5953 38.6616 37.6621 38.1528C38.0569 37.8754 38.4373 37.5498 38.7936 37.1559C38.7936 37.1559 34.7995 35.6645 34.6737 34.0097C34.6737 34.0097 33.4869 35.5794 30.9876 36.0104C30.9792 36.0053 30.9705 36.0004 30.9621 35.9953C30.8768 35.9424 30.7931 35.8871 30.7112 35.8299C30.7034 35.8245 30.6955 35.8188 30.6877 35.8131C30.3641 35.584 30.0696 35.3194 29.8076 35.0258C29.7894 35.0052 29.7713 34.9848 29.7534 34.964C29.6989 34.9008 29.6456 34.8368 29.5941 34.7712C29.5751 34.7471 29.5575 34.7224 29.5391 34.6977C29.4494 34.5793 29.3651 34.4564 29.2857 34.3307C29.2659 34.2995 29.2453 34.2691 29.2261 34.2374C29.193 34.1824 29.1624 34.1254 29.1315 34.069C29.1036 34.0181 29.0757 33.9671 29.0494 33.9153C29.0226 33.8625 28.9966 33.8093 28.9717 33.7554C28.9427 33.6927 28.915 33.629 28.8885 33.565C28.8693 33.519 28.8489 33.4731 28.831 33.4265C28.7896 33.3181 28.7508 33.2083 28.7164 33.0968C28.7064 33.0643 28.6985 33.0312 28.6891 32.9984C28.6639 32.9111 28.6406 32.8233 28.62 32.7344C28.6102 32.6921 28.6015 32.6498 28.5929 32.6072C28.5753 32.5218 28.5601 32.4353 28.5468 32.3486C28.5409 32.3098 28.5344 32.271 28.5292 32.232C28.5129 32.1073 28.4999 31.9815 28.4926 31.8543L28.4143 30.4725C28.5755 30.4278 34.3638 28.7854 35.488 23.6056C37.6432 13.674 31.3407 8.74686 31.3407 8.74686V8.74767C29.4396 6.9212 27.027 5.80424 24.8276 6.18298V48.9893H38.808L39.9376 42.9386C40.1 42.0692 40.001 41.2079 39.6938 40.4388ZM28.414 30.4649C28.4143 30.4646 28.4146 30.4644 28.4151 30.4641L28.4149 30.4644C28.4146 30.4649 28.4146 30.4646 28.414 30.4649Z" fill="#51504F"/>
<path d="M32.3519 36.5976C30.1767 36.0163 28.6206 34.1034 28.493 31.8542L28.0711 24.4106H21.1546L20.7129 32.1666C20.5837 34.4387 18.9967 36.3644 16.7922 36.9245L13.3949 37.7877C11.0896 38.3736 9.63532 40.6498 10.0721 42.9892L11.1923 48.9889H38.8081L39.9377 42.9383C40.3704 40.62 38.9457 38.3592 36.6686 37.7506L32.3519 36.5976Z" fill="#F4F1EF"/>
<path d="M34.0637 19.3542C34.0637 25.6928 29.1778 33.2711 25.0318 33.2711C20.8856 33.2711 16 25.6928 16 19.3542C16 13.0157 20.0438 9.23291 25.0318 9.23291C30.0199 9.23264 34.0637 13.0157 34.0637 19.3542Z" fill="white"/>
<path d="M36.6686 37.7513L32.7237 36.6973C32.265 40.6218 29.4123 46.7801 24.867 46.7801C20.3821 46.7801 17.5449 40.7837 17.0295 36.8542C16.9507 36.8784 16.8729 36.9046 16.7922 36.9253L13.3949 37.7885C11.0896 38.3743 9.63532 40.6506 10.0721 42.99L11.1923 48.9896H38.8081L39.9377 42.939C40.3704 40.6205 38.946 38.36 36.6686 37.7513Z" fill="white"/>
<path d="M32.7675 10.383C30.0923 6.70917 25.3522 4.46764 22.1476 7.5816C21.0944 7.71228 19.7466 7.81394 18.5013 8.7105C18.5013 8.7105 12.6052 12.3624 13.8906 22.3877C14.5228 27.3181 20.5969 29.5266 20.5969 29.5266C20.5969 29.5266 17.9938 26.2082 18.045 20.0131C18.3073 19.6056 18.6354 18.9704 18.6549 18.3129C19.9916 18.1801 25.4264 16.8961 27.1958 13.3378C28.2011 14.1576 29.8945 15.7697 30.453 17.7029C30.453 17.7029 30.2609 15.3738 29.0792 13.5758C31.4637 14.9341 31.7363 18.8907 31.7062 19.4877L32.2481 20.4612C32.2481 20.4612 32.7767 17.4454 34.1345 17.4522C34.1345 17.4522 34.9506 13.3809 32.7675 10.383Z" fill="#FFB56A"/>
<path opacity="0.32" d="M22.7308 19.3402C26.6936 15.8006 27.1859 13.3608 27.1859 13.3608C27.1859 13.3608 18.4269 21.6354 14.6459 21.3182C14.6459 21.3182 19.692 22.0545 22.7308 19.3402Z" fill="black"/>
<path d="M27.3032 13.1157C27.3032 13.1157 22.4937 22.3866 13.8907 21.0663C13.8907 21.0663 18.7764 18.6507 18.5014 15.9396L27.3032 13.1157Z" fill="#FFB56A"/>
<path d="M20.7184 32.0727L20.7129 32.1664C20.6249 33.7106 19.8619 35.0933 18.6902 35.9972C18.6902 35.9972 18.6908 35.9975 18.6913 35.9975C24.5755 38.1858 30.9655 35.9975 30.9655 35.9975L30.9625 35.9926C29.5392 35.1144 28.5913 33.5854 28.493 31.854C26.5776 32.8885 22.3504 32.3377 20.7184 32.0727Z" fill="#42789B"/>
<path d="M26.1516 35.0981C26.1516 35.0981 22.5161 43.6381 28.0258 47.3659C28.0258 47.3659 28.9406 43.1995 30.5606 42.8427C30.5606 42.8427 27.1287 40.9419 27.7679 35.7081L26.1516 35.0981Z" fill="#42789B"/>
<path d="M26.3915 37.2883C26.3915 37.2883 34.3314 42.0865 38.7941 37.1547C38.7941 37.1547 34.7999 35.6642 34.6741 34.0103C34.6741 34.0103 32.3114 37.1412 27.222 35.7739L26.3915 37.2883Z" fill="#42789B"/>
</g>
</svg>
