<svg width="50" height="51" viewBox="0 0 50 51" fill="none" xmlns="http://www.w3.org/2000/svg">
<g opacity="0.5">
<path d="M25 1.92521C38.0442 1.92521 48.6566 12.5432 48.6566 25.595C48.6566 38.6467 38.0442 49.2648 25 49.2648C11.9558 49.2648 1.34341 38.6465 1.34341 25.595C1.34341 12.5435 11.9558 1.92521 25 1.92521ZM25 0.581055C11.193 0.581055 0 11.78 0 25.595C0 39.4097 11.1927 50.6089 25 50.6089C38.8073 50.6089 50 39.4099 50 25.595C50 11.7803 38.807 0.581055 25 0.581055Z" fill="#F2B66C"/>
</g>
<path d="M25 48.1076C37.4264 48.1076 47.5 38.0284 47.5 25.5951C47.5 13.1617 37.4264 3.08252 25 3.08252C12.5736 3.08252 2.5 13.1617 2.5 25.5951C2.5 38.0284 12.5736 48.1076 25 48.1076Z" fill="#E2CAB3"/>
<path opacity="0.07" d="M4.50057 27.2291C4.50057 14.9988 14.4097 5.08421 26.6331 5.08421C32.2356 5.08421 37.3513 7.16818 41.25 10.6023C37.1941 5.99228 31.2532 3.08252 24.6325 3.08252C12.4091 3.08252 2.5 12.9971 2.5 25.2274C2.5 31.852 5.40814 37.796 10.0156 41.8541C6.58339 37.9532 4.50057 32.8347 4.50057 27.2291Z" fill="black"/>
<mask id="mask0_298_971" style="mask-type:luminance" maskUnits="userSpaceOnUse" x="2" y="2" width="46" height="47">
<path d="M24.9998 48.3109C37.5387 48.3109 47.7034 38.1405 47.7034 25.5946C47.7034 13.0488 37.5387 2.87842 24.9998 2.87842C12.461 2.87842 2.29626 13.0488 2.29626 25.5946C2.29626 38.1405 12.461 48.3109 24.9998 48.3109Z" fill="white"/>
</mask>
<g mask="url(#mask0_298_971)">
<path d="M19.0862 20.955C19.4258 22.342 18.8675 23.6797 17.8392 23.9428C16.811 24.2061 15.7021 23.295 15.3625 21.908C15.0229 20.5211 15.5812 19.1834 16.6095 18.9203C17.6377 18.657 18.7466 19.5681 19.0862 20.955Z" fill="white"/>
<path d="M32.0167 20.955C31.6771 22.342 32.2354 23.6797 33.2637 23.9428C34.2919 24.2061 35.4008 23.295 35.7404 21.908C36.08 20.5211 35.5217 19.1834 34.4934 18.9203C33.4652 18.657 32.3564 19.5681 32.0167 20.955Z" fill="#F4F1EF"/>
<path opacity="0.5" d="M37.0647 38.0018L32.8413 36.8733C32.7311 36.8439 32.6239 36.8087 32.5172 36.7727C30.5317 36.1004 29.1348 34.2863 29.0147 32.1701L28.9365 30.7923C30.7515 29.2764 32.4138 26.7539 33.441 23.978C34.4163 24.1011 35.4198 23.2174 35.7398 21.9093C36.0791 20.5232 35.5224 19.1866 34.4963 18.921C34.5017 18.7707 34.5071 18.6204 34.5071 18.4712C34.5071 18.4379 34.5052 18.4056 34.5052 18.3723C34.5769 17.0488 34.8513 13.6473 35.8279 11.8849H34.4958C34.4958 11.8849 34.5055 10.3391 33.8668 8.86051C33.8668 8.86051 33.564 9.5998 32.4893 9.667C32.4893 9.667 30.5975 8.43495 31.9173 7.09617C31.9173 7.09617 30.1499 6.32812 26.9813 7.71798C26.9813 7.71798 27.1157 6.82009 27.7874 6.32812C27.7874 6.32812 26.0122 6.7682 25.0001 7.52496V49.1607H36.465H39.2434L40.3525 43.219C40.7878 40.8874 39.3549 38.6139 37.0647 38.0018Z" fill="#51504F"/>
<path d="M32.8413 36.8738C30.6843 36.2974 29.1412 34.4005 29.0147 32.1706L28.5964 24.7896H21.738L21.3 32.4803C21.1719 34.7333 19.5982 36.6428 17.4122 37.1983L14.1015 38.0394C11.7831 38.6284 10.3204 40.9181 10.7597 43.2709L11.8594 49.1612H39.2434L40.3528 43.2195C40.788 40.888 39.3552 38.6142 37.0649 38.0023L32.8413 36.8738Z" fill="#F4F1EF"/>
<path d="M34.5073 18.4718C34.5073 24.7571 29.6625 32.2717 25.5514 32.2717C21.4403 32.2717 16.5954 24.7571 16.5954 18.4718C16.5954 12.1865 20.6052 8.43555 25.5514 8.43555C30.4975 8.43555 34.5073 12.1865 34.5073 18.4718Z" fill="white"/>
<path d="M15.2461 44.7668C15.2461 46.3416 15.0153 47.8323 14.6036 49.1611H36.4649C36.0533 47.8323 35.8225 46.3416 35.8225 44.7668C35.8225 42.2202 36.427 39.895 37.423 38.1167C37.3056 38.0748 37.1871 38.035 37.0646 38.0022L32.8412 36.8736C32.7311 36.8443 32.6238 36.8091 32.5172 36.7731C31.3309 39.7571 28.6592 41.839 25.5513 41.839C22.4344 41.839 19.7562 39.7453 18.575 36.7476C18.2128 36.9411 17.8233 37.0936 17.4122 37.1981L14.1015 38.0393C13.9559 38.0764 13.8137 38.1199 13.6754 38.1699C14.6534 39.9415 15.2461 42.2457 15.2461 44.7668Z" fill="#57758E"/>
<path d="M34.4958 11.8856C34.4958 11.8856 34.5054 10.3398 33.8668 8.86122C33.8668 8.86122 33.564 9.6005 32.4892 9.66771C32.4892 9.66771 30.5975 8.43566 31.9172 7.09688C31.9172 7.09688 30.1498 6.32883 26.9813 7.71868C26.9813 7.71868 27.1156 6.82079 27.7873 6.32883C27.7873 6.32883 25.7048 6.84364 24.7646 7.71868C24.7646 7.71868 23.9702 6.32883 21.6982 5.56885C21.6982 5.56885 21.847 8.2257 20.8395 8.65126C20.3053 8.49023 19.7288 8.06655 19.1855 7.16839C19.1855 7.16839 18.3942 8.4905 17.9563 9.96504C17.8714 10.0573 17.7881 10.1629 17.7059 10.2766C17.1191 10.175 16.3278 10.2005 15.263 10.5245C15.263 10.5245 16.4167 10.528 16.3565 15.082C16.3452 15.3159 16.3393 15.5565 16.3385 15.803C16.3383 15.8135 16.338 15.8231 16.3377 15.8339L16.3391 15.8315C16.3377 16.7745 16.4154 17.806 16.5978 18.9203C16.5978 18.9203 17.1521 18.8749 17.6634 19.7263C18.0476 16.321 20.3314 13.1622 20.3314 13.1622C20.3314 13.1622 20.922 12.1673 22.1746 12.3321C22.2444 12.3719 25.5151 14.2378 26.0828 15.8336C26.0828 15.8336 26.5836 14.1757 26.0828 13.5037C26.0828 13.5037 27.4627 14.4446 28.2688 14.7134C28.2688 14.7134 27.8319 13.8322 27.9106 13.4588C27.9106 13.4588 30.0152 13.6827 30.6423 14.7134C30.6423 14.7134 30.5523 13.851 30.9779 13.4983C32.267 14.4658 32.9146 16.7692 33.4162 19.7263C33.5863 18.8749 34.4815 18.9203 34.4815 18.9203C34.4815 18.9203 34.5992 14.1032 35.8279 11.8853H34.4958V11.8856Z" fill="#544E49"/>
</g>
</svg>
