<svg width="24" height="25" viewBox="0 0 24 25" fill="none" xmlns="http://www.w3.org/2000/svg">
<path d="M13.8234 0.179688H10.0986V4.01961H13.8234V0.179688Z" fill="#58595B"/>
<path d="M12.0001 16.9799C13.1854 16.9799 14.1497 15.9896 14.1497 14.7724C14.1497 13.5553 13.1854 12.5649 12.0001 12.5649C10.8149 12.5649 9.85052 13.5553 9.85052 14.7724C9.85036 15.9896 10.8149 16.9799 12.0001 16.9799Z" fill="#58595B"/>
<path d="M18.927 3.66206L17.4619 0.179688H14.7032V4.70722H9.29668V0.179688H6.53789L5.07283 3.66206H0V7.95891V9.47337V10.9184V18.6286V20.0736V21.0903V21.7646C0 23.1059 1.05822 24.1931 2.36344 24.1931H21.6366C22.9419 24.1931 24 23.1057 24 21.7646V21.0903V20.0736V18.6288V10.9184V9.47337V7.95891V3.66206H18.927ZM16.6529 5.64953C17.1158 5.64953 17.4912 6.03518 17.4912 6.51089C17.4912 6.98659 17.1158 7.37225 16.6529 7.37225C16.1899 7.37225 15.8145 6.98659 15.8145 6.51089C15.8144 6.03502 16.1897 5.64953 16.6529 5.64953ZM2.69183 20.7297H1.5422V8.81724H2.69183V20.7297ZM15.6852 21.0901H15.7471C14.6546 21.7771 13.3718 22.1747 11.9998 22.1747C10.6278 22.1747 9.34526 21.7771 8.25257 21.0901H8.31445C6.22853 19.8026 4.83256 17.4558 4.83256 14.7734C4.83256 11.6952 6.67132 9.05939 9.28125 7.95891H9.19263C10.0559 7.58186 11.0043 7.37225 11.9998 7.37225C12.9954 7.37225 13.9438 7.58203 14.807 7.95891H14.7184C17.3284 9.05939 19.1671 11.6952 19.1671 14.7734C19.1673 17.4558 17.7711 19.8024 15.6852 21.0901ZM22.4714 7.37225H18.4171V5.64953H22.4714V7.37225Z" fill="#58595B"/>
<path d="M11.9609 8.20117C8.43407 8.20117 5.56467 11.1495 5.56467 14.7732C5.56467 18.397 8.43407 21.3453 11.9609 21.3453C15.4875 21.3453 18.3569 18.397 18.3569 14.7732C18.357 11.1495 15.4876 8.20117 11.9609 8.20117ZM11.9609 20.113C9.0953 20.113 6.76403 17.7176 6.76403 14.7732C6.76403 11.8289 9.0953 9.43368 11.9609 9.43368C14.8267 9.43368 17.1577 11.8291 17.1577 14.7732C17.1577 17.7178 14.8267 20.113 11.9609 20.113Z" fill="#58595B"/>
<path d="M11.9609 9.94678C9.37037 9.94678 7.26361 12.1118 7.26361 14.7731C7.26361 17.4344 9.37037 19.5998 11.9609 19.5998C14.5513 19.5998 16.6583 17.4344 16.6583 14.7731C16.6584 12.112 14.5513 9.94678 11.9609 9.94678ZM11.9609 18.9836C9.70188 18.9836 7.86329 17.0946 7.86329 14.7733C7.86329 12.4521 9.70205 10.5631 11.9609 10.5631C14.2202 10.5631 16.0588 12.4521 16.0588 14.7733C16.0589 17.0946 14.2202 18.9836 11.9609 18.9836Z" fill="#58595B"/>
</svg>
