<svg width="14" height="12" viewBox="0 0 14 12" fill="none" xmlns="http://www.w3.org/2000/svg">
<mask id="mask0_525_7" style="mask-type:alpha" maskUnits="userSpaceOnUse" x="0" y="0" width="14" height="12">
<path d="M3.21649 9.3404C3.55184 9.09603 3.98597 9.03364 4.37591 9.17402C5.06481 9.42358 5.83689 9.56656 6.65837 9.56656C9.90008 9.56656 12.0656 7.47388 12.0656 5.40719C12.0656 3.3405 9.90008 1.24781 6.65837 1.24781C3.41666 1.24781 1.25118 3.3405 1.25118 5.40719C1.25118 6.23906 1.57353 7.03974 2.17924 7.72604C2.40281 7.9782 2.51199 8.31095 2.486 8.6489C2.4496 9.11943 2.33782 9.55096 2.19224 9.93311C2.63418 9.72774 3.00072 9.49897 3.21649 9.343M0.554488 10.3958C0.601281 10.3256 0.645474 10.2555 0.687068 10.1853C0.947029 9.75373 1.19399 9.18702 1.24338 8.55012C0.463501 7.66365 0.00337053 6.57961 0.00337053 5.40719C0.00337053 2.42024 2.98252 0 6.65837 0C10.3342 0 13.3134 2.42024 13.3134 5.40719C13.3134 8.39414 10.3342 10.8144 6.65837 10.8144C5.69392 10.8144 4.77885 10.648 3.95218 10.349C3.64282 10.5752 3.1385 10.8846 2.54059 11.1445C2.14805 11.3161 1.70092 11.4721 1.23818 11.5631C1.21739 11.5683 1.19659 11.5709 1.17579 11.5761C1.06141 11.5969 0.949628 11.6151 0.832646 11.6255C0.827447 11.6255 0.819648 11.6281 0.814449 11.6281C0.681869 11.6411 0.549288 11.6488 0.416708 11.6488C0.247734 11.6488 0.0969565 11.5475 0.0319662 11.3915C-0.033024 11.2355 0.00337053 11.0587 0.120353 10.9392C0.226937 10.83 0.323122 10.713 0.414109 10.5882C0.458302 10.5284 0.499896 10.4686 0.53889 10.4088C0.54149 10.4036 0.544089 10.401 0.546689 10.3958" fill="#212121"/>
</mask>
<g mask="url(#mask0_525_7)">
<path d="M3.21649 9.3404C3.55184 9.09603 3.98597 9.03364 4.37591 9.17402C5.06481 9.42358 5.83689 9.56656 6.65837 9.56656C9.90008 9.56656 12.0656 7.47388 12.0656 5.40719C12.0656 3.3405 9.90008 1.24781 6.65837 1.24781C3.41666 1.24781 1.25118 3.3405 1.25118 5.40719C1.25118 6.23906 1.57353 7.03974 2.17924 7.72604C2.40281 7.9782 2.51199 8.31095 2.486 8.6489C2.4496 9.11943 2.33782 9.55096 2.19224 9.93311C2.63418 9.72774 3.00072 9.49897 3.21649 9.343M0.554488 10.3958C0.601281 10.3256 0.645474 10.2555 0.687068 10.1853C0.947029 9.75373 1.19399 9.18702 1.24338 8.55012C0.463501 7.66365 0.00337053 6.57961 0.00337053 5.40719C0.00337053 2.42024 2.98252 0 6.65837 0C10.3342 0 13.3134 2.42024 13.3134 5.40719C13.3134 8.39414 10.3342 10.8144 6.65837 10.8144C5.69392 10.8144 4.77885 10.648 3.95218 10.349C3.64282 10.5752 3.1385 10.8846 2.54059 11.1445C2.14805 11.3161 1.70092 11.4721 1.23818 11.5631C1.21739 11.5683 1.19659 11.5709 1.17579 11.5761C1.06141 11.5969 0.949628 11.6151 0.832646 11.6255C0.827447 11.6255 0.819648 11.6281 0.814449 11.6281C0.681869 11.6411 0.549288 11.6488 0.416708 11.6488C0.247734 11.6488 0.0969565 11.5475 0.0319662 11.3915C-0.033024 11.2355 0.00337053 11.0587 0.120353 10.9392C0.226937 10.83 0.323122 10.713 0.414109 10.5882C0.458302 10.5284 0.499896 10.4686 0.53889 10.4088C0.54149 10.4036 0.544089 10.401 0.546689 10.3958" fill="#E3E3E3"/>
</g>
</svg>
