<svg width="14" height="13" viewBox="0 0 14 13" fill="none" xmlns="http://www.w3.org/2000/svg">
<path d="M3.21312 10.2938C3.54847 10.0494 3.9826 9.98701 4.37254 10.1274C5.06144 10.3769 5.83352 10.5199 6.655 10.5199C9.89671 10.5199 12.0622 8.42724 12.0622 6.36055C12.0622 4.29386 9.89671 2.20118 6.655 2.20118C3.41329 2.20118 1.24781 4.29386 1.24781 6.36055C1.24781 7.19243 1.57016 7.99311 2.17587 8.6794C2.39944 8.93157 2.50862 9.26432 2.48263 9.60227C2.44623 10.0728 2.33445 10.5043 2.18887 10.8865C2.6308 10.6811 2.99735 10.4523 3.21312 10.2964M0.551117 11.3492C0.59791 11.279 0.642104 11.2088 0.683697 11.1386C0.943658 10.7071 1.19062 10.1404 1.24001 9.50348C0.460131 8.61701 0 7.53298 0 6.36055C0 3.3736 2.97915 0.953366 6.655 0.953366C10.3308 0.953366 13.31 3.3736 13.31 6.36055C13.31 9.3475 10.3308 11.7677 6.655 11.7677C5.69055 11.7677 4.77548 11.6014 3.94881 11.3024C3.63945 11.5286 3.13513 11.8379 2.53722 12.0979C2.14468 12.2695 1.69754 12.4254 1.23481 12.5164C1.21402 12.5216 1.19322 12.5242 1.17242 12.5294C1.05804 12.5502 0.946258 12.5684 0.829275 12.5788C0.824076 12.5788 0.816277 12.5814 0.811078 12.5814C0.678498 12.5944 0.545918 12.6022 0.413338 12.6022C0.244363 12.6022 0.0935859 12.5008 0.0285957 12.3449C-0.0363945 12.1889 0 12.0121 0.116982 11.8925C0.223566 11.7833 0.319752 11.6664 0.410738 11.5416C0.454932 11.4818 0.496525 11.422 0.53552 11.3622C0.538119 11.357 0.540719 11.3544 0.543318 11.3492" fill="#212121"/>
</svg>
