<svg width="24" height="25" viewBox="0 0 24 25" fill="none" xmlns="http://www.w3.org/2000/svg">
<path d="M12 0.179688C5.37259 0.179688 0 5.55527 0 12.1864C0 18.8175 5.37259 24.1931 12 24.1931C18.6274 24.1931 24 18.8175 24 12.1864C24 5.55527 18.6277 0.179688 12 0.179688ZM6.72218 5.90534L6.91543 5.81902L7.10868 5.90534C7.40122 6.03655 9.96819 7.23522 9.96819 8.91836C9.96819 9.02779 9.96155 9.14094 9.94748 9.26418C9.92014 9.50562 9.71574 9.68384 9.47842 9.68384C9.46064 9.68384 9.44285 9.68278 9.4248 9.68092C9.16545 9.65143 8.97883 9.41744 9.0083 9.15794C9.01812 9.07002 9.02316 8.99167 9.02316 8.9181C9.02316 8.0926 7.62181 7.2169 6.91543 6.86072C6.20905 7.2169 4.8077 8.09286 4.8077 8.9181C4.8077 8.99167 4.81248 9.07002 4.82256 9.15794C4.85176 9.41744 4.66541 9.65143 4.40606 9.68092C4.14777 9.71013 3.91284 9.52368 3.88338 9.26418C3.86957 9.14094 3.86267 9.02779 3.86267 8.91836C3.86267 7.23496 6.42964 6.03655 6.72218 5.90534ZM20.17 12.9423C19.0391 16.4616 15.8133 19.0039 12.0003 19.0039C8.18724 19.0039 4.9614 16.4616 3.83055 12.9423C3.60279 12.2336 4.10848 11.5014 4.83637 11.5014H19.1642C19.892 11.5014 20.3975 12.2336 20.17 12.9423ZM20.3298 9.26418C20.3024 9.50562 20.098 9.68384 19.8607 9.68384C19.8429 9.68384 19.8252 9.68278 19.8071 9.68092C19.5478 9.65143 19.3611 9.41744 19.3906 9.15794C19.4004 9.07002 19.4055 8.99167 19.4055 8.9181C19.4055 8.0926 18.0041 7.2169 17.2977 6.86072C16.5914 7.2169 15.19 8.09286 15.19 8.9181C15.19 8.99167 15.1948 9.07002 15.2049 9.15794C15.2341 9.41744 15.0477 9.65143 14.7884 9.68092C14.5303 9.71013 14.2951 9.52368 14.2657 9.26418C14.2519 9.14094 14.245 9.02779 14.245 8.91836C14.245 7.23496 16.8119 6.03655 17.1045 5.90534L17.2977 5.81902L17.491 5.90534C17.7835 6.03655 20.3505 7.23522 20.3505 8.91836C20.3505 9.02779 20.3436 9.14094 20.3298 9.26418Z" fill="#666666"/>
</svg>
